<?xml version="1.0" standalone="no"?>
<svg viewBox="0 0 200 200" xmlns="http://www.w3.org/2000/svg">
  <path fill="#FF0066" d="M21.9,-40.3C33.4,-31.2,51.5,-35.6,63.3,-31.2C75.1,-26.7,80.8,-13.4,78.6,-1.3C76.4,10.8,66.4,21.7,55.2,27.3C44.1,32.9,31.7,33.3,22.3,44.4C12.9,55.6,6.5,77.6,0,77.6C-6.5,77.6,-12.9,55.6,-26.1,46.6C-39.2,37.5,-58.9,41.5,-70.9,35.9C-82.9,30.3,-87,15.1,-86.7,0.2C-86.4,-14.8,-81.7,-29.6,-74.3,-43.1C-66.9,-56.6,-56.9,-68.9,-44,-77.2C-31.2,-85.6,-15.6,-90.2,-5.2,-81.1C5.1,-72,10.3,-49.4,21.9,-40.3Z" transform="translate(100 100)" />
</svg>
